<?xml version="1.0" encoding="UTF-8"?>
<svg version="1.1" viewBox="0 0 1964 2036" width="491" height="509" xmlns="http://www.w3.org/2000/svg">
<path transform="translate(986,156)" d="m0 0 5 1 21 12 18 12 14 9 18 12 16 11 18 12 22 14 17 10 10 6 25 14 27 14 16 8 27 13 33 14 30 12 37 13 24 8 41 12 40 10 50 11 69 12 148 19 17 3 2 10 10 100 3 46 1 16 1 34v60l-1 35-3 49-4 40-6 47-6 38-9 44-7 31-13 49-13 43-12 36-14 38-17 41-14 32-18 38-18 35-12 22-13 23-27 45-12 18-17 26-13 19-10 14-12 16-11 14-9 11-11 14-10 11-7 9-14 15-15 16-7 8-15 16-19 19h-2v2h-2v2h-2v2l-8 7-19 19-8 7-11 10-8 7-12 11-11 9-13 12-14 11-13 11-10 8-16 13-11 8-21 16-17 12-14 10-30 20-17 11-26 16-25 14-24 14-26 15-9 5-9-5-16-11-39-26-14-10-30-20-38-26-14-10-19-14-13-10-14-12-10-9-11-12-11-16-11-21-14-34-19-38-13-23-16-28-16-26-25-40-44-66-14-20-13-18-20-26-11-13-12-12-5-3h-3l-3 11-2 22v35l1 23v31l-2 13-4 8-1 1-7-1-10-10-12-18-9-15-14-26-14-27-11-25-12-31-10-31-12-48-7-39-3-23-3-37v-47l3-29 7-36 10-38 7-24 8-20 6-11 5-4 3 3 8 20 10 30 18 47 13 31 13 28 12 24 10 19 10 17 15 24 11 17 26 36 9 12 10 13 14 17 11 14 24 28 13 15 9 10 9 11 12 13 7 8 13 14 7 8 9 10 36 39 14 15 13 13 7 8 39 39 2 1v2l4 2 7 6 3 1 4-11 3-15 2-24 1-31v-26h3l8 16 16 33 10 25 6 22 4 24 3 39v69l1 28 2 17 2 3 5-1 11-7 16-15 15-16 11-13 8-10 10-12 9-12 10-14 12-17 11-17 9-15 9-17 9-23 11-33 6-24 4-21 7-43 1-4 3 1 12 29 9 23 6 25 4 26 3 33 1 25 1 80 2 21 4 10 5 2 10-1 15-4 18-8 18-10 19-13 13-11 11-9 18-18 18-22 12-16 12-19 10-18 10-21 7-19 5-19 3-18v-29l-4-24-8-32-9-29-9-24-10-23-10-19-10-14-4-3-5 1-3 5-1 7v15l3 31 1 28-3 37-4 23-7 28-8 23-3 6h-4l-4-11-6-28-5-26-6-20-8-18-10-18-12-17-11-14-11-12-16-17-15-14-8-7-13-11-14-11-21-16-45-30-52-32-23-15-14-9-19-13-15-11-11-9-2-4 9-3 23-3 33-2 51-1 39-2 26-3 18-4 13-5 6-5 1-7-4-8-10-8-17-10-16-10-13-10-11-9-13-12-20-20-9-11-11-14-9-14-5-11-1-3v-7l9 3 10 6 11 9 10 9 14 11 16 11 17 10 21 10 15 5 16 4 23 4 29 3h51l21-3 15-4 12-6 9-8 5-1 2 2 1 9-3 8-12 14-13 12-14 11-18 13-25 16-12 8-17 12-6 5-1 3h13l26-4h11l-2 4-15 10-23 16-16 12-7 6-1 4 8-1 23-8 31-12 22-7h6l-2 4-21 13-28 15-11 7-12 9-6 7-1 5 5 1 11-1 19-7 18-10 14-8 15-6 19-5 17-3 20-2 17-1 63-2 30-2 30-5 18-5 10-6 7-7 8-14 3-11 1-6v-12l-4-10v-2l-4-2-5-2-14-3-16-8-15-9-11-9-14-12-10-8-3-4 64-2 17-2 12-3 6-4 3-3 1-7-3-10-7-10-9-10-14-14-11-9-14-12-14-11-18-14-20-15-38-28-14-12-10-9-8-7-8-8-9-11-7-11-5-15-9-13-9-10-18-18-8-7-13-11-14-11-16-13-19-14-10-8v-12l5-29 8-36 2-12v-19l-3-6-1-1h-9l-10 5-14 11-24 24h-2l-2 4-9 8-6 7h-2l-1-7-1-58-4-24-5-16-7-16-10-16-8-10-14-15-17-13-18-12-24-13-17-9-8-4-1-2 13 1 42 6 25 6 19 7 16 8 11 6 15 11 15 15 7 10 6 12 4 16 4 12 5 5h10l17-6 20-8 18-5h12l4 5 2 5v18l-6 41-9 49-3 12v14l3 7 6 10 11 13 15 14 13 11 11 9 22 22 11 14 9 14 8 16 7 11 8 10 14 15 7 7 8 7 10 9 11 9 14 11 21 16 16 12 13 10 16 13 11 9 15 14 14 14 10 13 9 16 5 15 2 13 1 11v12l-2 27-6 36-5 21-7 20-6 12-7 11-7 16-4 16-2 14-1 22-4 29-5 17-8 18-8 13-8 11-9 10-11 11-19 14-19 12-14 11-6 8-4 12 1 22 9 47 5 18 1 2 4-2 8-7 9-11 13-16 14-20 13-18 10-15 16-25 9-14 15-25 12-21 15-28 14-28 11-23 9-19 15-37 11-29 19-56 16-61 9-42 8-45 7-48 6-54 3-35 6-106 1-29v-37l-2-26-4-20-7-14-6-7-10-6-14-5-20-4-36-4-41-5-47-8-56-13-28-8-31-9-54-18-31-12-30-12-23-10-48-22-29-15-22-12-28-17-22-13-26-16-51-31-6 1-18 11-20 12-23 14-24 14-13 8-32 19-13 8 5 4 43 30 10 7 13 10 12 11 13 13 4 8-1 4h-9l-17-7-20-9-18-6-21-5-26-4-24-2-39-1-28 1-33 3-33 5-36 8-30 10-36 16-34 17-23 13-22 12-23 14-25 16-20 14-14 11-11 9-6 9 1 4 8 3 18 2h37l45-3h8l-4 4-30 15-22 12-16 9-17 11-14 10-12 9-13 11-11 9-17 17h-2v2h-2l-2 4-11 11-7 8-11 13-9 11-14 19-11 16-10 15-12 19-11 17-9 14-2 1v-217l2-66 2-36 5-42 5-22 6-16 5-7 10-4 23-4 62-9 67-9 45-7 49-10 52-13 44-13 42-14 35-13 33-14 25-11 26-12 19-10 25-13 23-13 17-10 22-14 12-8 23-16 15-11 18-13 15-11 17-11zm347 961-44 2-19 3-9 4-4 4-2 5 1 9 6 10 9 10 10 9 16 11 25 15 22 15 14 11 9 9 7 10 9 16 4 2 7-1 6-3 10-9 11-16 11-21 7-22 3-15 1-9v-48l-11-1z" fill="#010101"/>
<path transform="translate(818,545)" d="m0 0h30l28 2 30 5 24 6 8 4 1 4-13 4-43 9-21 6-12 6-5 4h-2l-1 8 6 4 12 2 24 3 21 6 15 6 22 11 44 27v4l-10 9-8 7-12 11-8 7-10 9-3 1v2l-8 7-2 3h-2l-2 4-9 11-7 10-12 21-7 16-6 18-4 17-2 16v29l3 20 6 21 8 18 10 16 10 13 9 10 8 7 17 14 16 12 3 4-8-1-41-14-17-8-17-10-14-10-11-9-12-11-11-11-9-11-9-12-8-13-8-16-8-24-3-15v-24l4-18 7-16 7-12 9-11 10-9 10-6 11-5 7-2 22-2 13-5 9-6 4-5 3-9v-12l-4-10-6-8-8-7-13-6-17-5-12-2-11-1h-16l-17 2-16 5-8 6-6 7-8 16-6 14-9 29-5 25-3 22-1 14v19l5 37 2 12v7l-5-4-7-9-13-16-11-12-8-6-7-1-6 3-8 8-8 16-7 20-5 23-3 24v46l4 23 8 32h2l18-35 10-17 8-10 6-2 5 3 6 9 5 12 4 16 3 15 5 10 10 15 10 13 20 25 12 14 9 11 11 12 7 8 11 12 15 16 11 12 10 11 9 11 10 11 8 10 12 14 9 12 14 19 18 27 12 21 8 17 7 19 8 28 4 20v5l-5-1-12-11-14-17-12-16-14-19-12-14-7-8-10-10-7-8-12-11-14-13-9-7-16-13-17-12-13-8-15-8-12-4-8-1-7 3-1 2v10l5 17 8 26 2 14-1 4-6-2-10-8-13-12-24-24-7-8-13-14-7-8-12-14-13-15-12-14-8-10-11-13-20-26-12-16-11-16-10-16-8-18-7-23-5-26-3-21-3-35v-54l2-22 4-23 5-16 8-16 7-10 4-10v-8l-4-1h-7l-13 4-15 8-12 8-19 14-20 15-1-2 18-34 10-17 11-15 11-14 18-20 25-25 8-11 3-5 1-6-2-4-13 1-20 6-17 5-12 1-2-1v-6l6-10 18-18 28-22 10-7 23-15 22-13 18-10 22-11 20-8 25-7 29-6 22-3z" fill="#020202"/>
<path transform="translate(1133,717)" d="m0 0 5 1 29 15 19 10 12 8 6 5 3 5-1 5-8 7-5 5-2 3 1 8 7 11 9 12 1 2v6l-4 2-6 1h-31l-21-5-15-6-16-8-9-7-5-4-6-9-1-5 2-3 11-3 12-2 45-2 7-1-6-12-13-15-11-12-9-11z" fill="#050505"/>
<path transform="translate(501,569)" d="m0 0h8l-2 3-17-1v-1z" fill="#EBEBEB"/>
</svg>
